<svg xmlns="http://www.w3.org/2000/svg" fill="none" viewBox="0 0 64 54" aria-hidden="true">
  <path fill="#000" d="M28.578.906L4.717 10.78c-1.327.55-1.313 2.434.022 2.963l23.96 9.502a8.89 8.89 0 006.555 0l23.96-9.502c1.335-.53 1.35-2.414.022-2.963L35.376.907a8.89 8.89 0 00-6.799 0M34.103 28.433V52.17a1.6 1.6 0 002.188 1.486l26.7-10.364A1.6 1.6 0 0064 41.806V18.07a1.6 1.6 0 00-2.188-1.486l-26.7 10.364a1.6 1.6 0 00-1.009 1.486M27.87 29.658l-8.728 4.215-16.727 8.015c-1.06.512-2.414-.26-2.414-1.44V18.17c0-.426.218-.794.512-1.07.12-.12.256-.222.405-.304.4-.24.97-.304 1.455-.112l25.365 10.05c1.3.512 1.4 2.318.133 2.925"/>
  <path fill="#000" d="M27.87 29.658l-7.924 3.826L.512 17.098c.12-.12.256-.222.405-.304.4-.24.97-.304 1.455-.112l25.365 10.05c1.3.512 1.4 2.318.133 2.925"/>
</svg>
