<svg width="37" height="32" viewBox="0 0 37 32" fill="none" xmlns="http://www.w3.org/2000/svg">
<path d="M27.1424 19.9783H16.6185L27.8314 8.74595C27.9371 8.64001 28.0091 8.50502 28.0382 8.3581C28.0674 8.21119 28.0525 8.0589 27.9953 7.92051C27.9381 7.78211 27.8411 7.66384 27.7168 7.58059C27.5925 7.49734 27.4464 7.45291 27.2968 7.45286H9.48849V0.000563065H29.0218C30.4557 -0.0169242 31.8652 0.373243 33.0867 1.12584C34.3082 1.87843 35.2917 2.96257 35.9229 4.25246C36.5747 5.63201 36.7842 7.17988 36.5225 8.68347C36.2609 10.187 35.541 11.5726 34.4618 12.6499L27.1424 19.9783Z" fill="#FF00BD"/>
<path d="M9.48857 11.0423H20.013L8.82257 22.252C8.71508 22.3598 8.6419 22.4972 8.61226 22.6466C8.58262 22.7961 8.59791 22.951 8.6561 23.0918C8.71429 23.2326 8.81275 23.3529 8.93919 23.4376C9.06562 23.5223 9.21433 23.5676 9.36644 23.5678H27.1245V31.0201H7.61019C6.17626 31.0374 4.7669 30.6472 3.54541 29.8946C2.32392 29.142 1.34039 28.0579 0.709041 26.7681C0.0573297 25.3885 -0.152047 23.8406 0.109677 22.337C0.3714 20.8334 1.09145 19.4479 2.17081 18.3707L9.48857 11.0423Z" fill="#FF00BD"/>
</svg>
