<svg width="147" height="33" viewBox="0 0 147 33" fill="none" xmlns="http://www.w3.org/2000/svg">
<path d="M27.1424 19.9783H16.6185L27.8314 8.74595C27.9371 8.64001 28.0091 8.50502 28.0382 8.3581C28.0674 8.21119 28.0525 8.0589 27.9953 7.92051C27.9381 7.78211 27.8411 7.66384 27.7168 7.58059C27.5925 7.49735 27.4464 7.45291 27.2968 7.45286H9.48849V0.000563065H29.0218C30.4557 -0.0169242 31.8652 0.373243 33.0867 1.12584C34.3082 1.87843 35.2917 2.96257 35.9229 4.25246C36.5747 5.63201 36.7842 7.17988 36.5225 8.68347C36.2609 10.187 35.541 11.5726 34.4618 12.6499L27.1424 19.9783Z" fill="#FF00BD"/>
<path d="M9.48857 11.0423H20.013L8.82257 22.252C8.71508 22.3598 8.6419 22.4972 8.61226 22.6466C8.58262 22.7961 8.59791 22.951 8.6561 23.0918C8.71429 23.2326 8.81275 23.3529 8.93919 23.4376C9.06562 23.5223 9.21433 23.5676 9.36644 23.5678H27.1245V31.0201H7.61019C6.17626 31.0374 4.7669 30.6472 3.54541 29.8946C2.32392 29.142 1.34039 28.0579 0.709041 26.7681C0.0573297 25.3885 -0.152047 23.8406 0.109677 22.337C0.3714 20.8334 1.09145 19.4479 2.17081 18.3707L9.48857 11.0423Z" fill="#FF00BD"/>
<path d="M82.7863 16.7698C82.7863 19.4269 81.7521 21.0532 79.3262 21.0136C77.0989 20.974 75.9456 19.3476 75.9456 16.7307V6.69611H70.458V17.1264C70.458 22.1638 73.5997 25.7334 79.3262 25.7731C84.5759 25.8127 88.2744 21.9657 88.2744 17.1666V6.69611H82.7863V16.7698Z" fill="#FF00BD"/>
<path d="M136.092 6.25809C130.167 6.25809 125.994 10.4623 125.994 16.0148C125.994 21.5673 130.169 25.7715 136.092 25.7715C142.015 25.7715 146.191 21.5673 146.191 16.0148C146.191 10.4623 142.018 6.25809 136.092 6.25809ZM136.092 21.0517C133.348 21.0517 131.402 18.9895 131.402 16.0148C131.402 13.0401 133.35 10.9774 136.092 10.9774C138.835 10.9774 140.783 13.0401 140.783 16.0148C140.783 18.9895 138.836 21.0517 136.092 21.0517Z" fill="#FF00BD"/>
<path d="M101.966 6.25803C96.0403 6.25803 91.8672 10.4622 91.8672 16.0147C91.8672 16.0885 91.8759 16.1594 91.877 16.2348H91.8672V32.007H97.2753V24.75C98.7432 25.434 100.346 25.7826 101.966 25.7703C107.892 25.7703 112.065 21.5661 112.065 16.0136C112.065 10.4611 107.892 6.25803 101.966 6.25803ZM101.966 21.0516C99.2217 21.0516 97.2753 18.9894 97.2753 16.0147C97.2753 13.0401 99.2239 10.9773 101.966 10.9773C104.708 10.9773 106.657 13.0401 106.657 16.0147C106.657 18.9894 104.71 21.0516 101.966 21.0516Z" fill="#FF00BD"/>
<path d="M49.8682 11.4105H60.6821L49.8682 19.8617V25.335H67.3821V20.619H56.5422L67.3821 12.1463V6.69446H49.8682V11.4105Z" fill="#FF00BD"/>
<path d="M124.369 25.335H122.538C120.564 25.3328 118.671 24.5498 117.276 23.1579C115.88 21.7659 115.095 19.8787 115.093 17.9101V0.00537109H120.611V17.9101C120.613 18.4193 120.816 18.9072 121.177 19.2672C121.538 19.6272 122.027 19.8301 122.538 19.8314H124.369V25.335Z" fill="#FF00BD"/>
</svg>
