<svg width="64" height="54" viewBox="0 0 64 54" fill="none" xmlns="http://www.w3.org/2000/svg">
<path d="M28.578 0.906007L4.717 10.78C3.39 11.33 3.404 13.214 4.739 13.743L28.699 23.245C30.8042 24.08 33.1488 24.08 35.254 23.245L59.214 13.743C60.549 13.213 60.564 11.329 59.236 10.78L35.376 0.907007C33.1992 0.00613618 30.7538 0.00613618 28.577 0.907007" fill="black"/>
<path d="M34.103 28.433V52.17C34.1033 52.4307 34.1674 52.6874 34.2896 52.9178C34.4117 53.1481 34.5884 53.3451 34.8041 53.4916C35.0198 53.638 35.268 53.7296 35.5271 53.7583C35.7863 53.7869 36.0485 53.7518 36.291 53.656L62.991 43.292C63.2886 43.1737 63.5438 42.9689 63.7237 42.7039C63.9036 42.439 63.9998 42.1262 64 41.806V18.07C63.9997 17.8093 63.9356 17.5526 63.8134 17.3222C63.6912 17.0919 63.5146 16.8949 63.2989 16.7484C63.0832 16.6019 62.835 16.5104 62.5759 16.4817C62.3167 16.4531 62.0545 16.4882 61.812 16.584L35.112 26.948C34.8144 27.0663 34.5592 27.2711 34.3793 27.536C34.1994 27.801 34.1032 28.1138 34.103 28.434" fill="black"/>
<path d="M27.87 29.658L19.142 33.873L2.41501 41.888C1.35501 42.4 0.00100708 41.628 0.00100708 40.448V18.17C0.00100708 17.744 0.219007 17.376 0.513007 17.1C0.633181 16.9803 0.7695 16.878 0.918007 16.796C1.31801 16.556 1.88801 16.492 2.37301 16.684L27.738 26.734C29.038 27.246 29.138 29.052 27.871 29.659" fill="black"/>
<path d="M27.87 29.658L19.946 33.484L0.511993 17.098C0.632167 16.9783 0.768487 16.876 0.916993 16.794C1.31699 16.554 1.88699 16.49 2.37199 16.682L27.737 26.732C29.037 27.244 29.137 29.05 27.87 29.657" fill="black"/>
</svg>
